<svg xmlns="http://www.w3.org/2000/svg" xmlns:xlink="http://www.w3.org/1999/xlink" version="1.1" width="594.1" height="736.1" viewBox="59.9 105.9 594.1 736.1"><g><g transform="translate(60,106)"><g><g>
<path d="M534,0H0v630h534V0L534,0z" stroke="#000000" stroke-dasharray="none" fill="#FFFFFF"/>
<rect x="23.4" y="28.7" width="487.3" height="572.5" fill="none"/>
<circle fill="none" cx="267" cy="0" r="0.1"/>
<circle fill="none" cx="399.3" cy="0" r="0.1"/>
<circle fill="none" cx="534" cy="158.9" r="0.1"/>
<circle fill="none" cx="534" cy="315" r="0.1"/>
<circle fill="none" cx="534" cy="471.1" r="0.1"/>
<circle fill="none" cx="399.3" cy="630" r="0.1"/>
<circle fill="none" cx="267" cy="630" r="0.1"/>
<circle fill="none" cx="134.7" cy="630" r="0.1"/>
<circle fill="none" cx="0" cy="471.1" r="0.1"/>
<circle fill="none" cx="0" cy="315" r="0.1"/>
<circle fill="none" cx="0" cy="158.9" r="0.1"/>
<circle fill="none" cx="134.7" cy="0" r="0.1"/>
</g></g><rect stroke="none" stroke-width="0" fill="#FFFFFF" x="0" y="0" width="0" height="0" transform="translate(533.9,314.9)"/><path stroke="#000000" fill="none" d=""/><text font-family="OpenSansCondensedLight" font-size="14pt" fill="black" transform="translate(533.9,314.9)"/><rect stroke-width="0" fill="none" width="487.3" height="572.5" transform="translate(23.4,28.7)"/><text font-family="OpenSansCondensedLight" font-size="14pt" fill="black" transform="translate(23.4,28.7)" text-anchor="middle"><tspan x="243.7" y="16.8">ACCESS POINT 102</tspan></text><path stroke="#000000" fill="none" transform="translate(23.4,28.7)" d="M 297.1 19 325.1 19"/></g><g transform="translate(100,184)"><g><g>
<path d="M130,0H0v138h130V0L130,0z" stroke="#000000" stroke-dasharray="none" fill="#FFFFFF"/>
<rect x="5.7" y="6.3" width="118.6" height="125.4" fill="none"/>
<circle fill="none" cx="65" cy="0" r="0.1"/>
<circle fill="none" cx="97.2" cy="0" r="0.1"/>
<circle fill="none" cx="130" cy="34.8" r="0.1"/>
<circle fill="none" cx="130" cy="69" r="0.1"/>
<circle fill="none" cx="130" cy="103.2" r="0.1"/>
<circle fill="none" cx="97.2" cy="138" r="0.1"/>
<circle fill="none" cx="65" cy="138" r="0.1"/>
<circle fill="none" cx="32.8" cy="138" r="0.1"/>
<circle fill="none" cx="0" cy="103.2" r="0.1"/>
<circle fill="none" cx="0" cy="69" r="0.1"/>
<circle fill="none" cx="0" cy="34.8" r="0.1"/>
<circle fill="none" cx="32.8" cy="0" r="0.1"/>
</g></g><rect stroke="none" stroke-width="0" fill="#FFFFFF" x="0" y="0" width="0" height="0" transform="translate(129.9,68.9)"/><path stroke="#000000" fill="none" d=""/><text font-family="OpenSansCondensedLight" font-size="14pt" fill="black" transform="translate(129.9,68.9)"/><rect stroke-width="0" fill="none" width="118.6" height="125.4" transform="translate(5.7,6.3)"/><text font-family="OpenSansCondensedLight" font-size="14pt" fill="black" transform="translate(5.7,6.3)" text-anchor="middle"><tspan x="59.3" y="58.5">MEMORY</tspan><tspan x="59.3" y="79.5">104</tspan></text><path stroke="#000000" fill="none" transform="translate(5.7,6.3)" d="M 45.3 82 73.3 82"/></g><g transform="translate(252,339)"><g><g>
<path d="M74,0H0v74h74V0L74,0z" stroke="#000000" stroke-dasharray="none" fill="#FFFFFF"/>
<rect x="3.2" y="3.4" width="67.5" height="67.3" fill="none"/>
<circle fill="none" cx="37" cy="0" r="0.1"/>
<circle fill="none" cx="55.3" cy="0" r="0.1"/>
<circle fill="none" cx="74" cy="18.7" r="0.1"/>
<circle fill="none" cx="74" cy="37" r="0.1"/>
<circle fill="none" cx="74" cy="55.3" r="0.1"/>
<circle fill="none" cx="55.3" cy="74" r="0.1"/>
<circle fill="none" cx="37" cy="74" r="0.1"/>
<circle fill="none" cx="18.7" cy="74" r="0.1"/>
<circle fill="none" cx="0" cy="55.3" r="0.1"/>
<circle fill="none" cx="0" cy="37" r="0.1"/>
<circle fill="none" cx="0" cy="18.7" r="0.1"/>
<circle fill="none" cx="18.7" cy="0" r="0.1"/>
</g></g><rect stroke="none" stroke-width="0" fill="#FFFFFF" x="0" y="0" width="0" height="0" transform="translate(73.9,36.9)"/><path stroke="#000000" fill="none" d=""/><text font-family="OpenSansCondensedLight" font-size="14pt" fill="black" transform="translate(73.9,36.9)"/><rect stroke-width="0" fill="none" width="67.5" height="67.3" transform="translate(3.2,3.4)"/><text font-family="OpenSansCondensedLight" font-size="14pt" fill="black" transform="translate(3.2,3.4)" text-anchor="middle"><tspan x="33.8" y="29.4">MMU</tspan><tspan x="33.8" y="50.4">106</tspan></text><path stroke="#000000" fill="none" transform="translate(3.2,3.4)" d="M 19.8 53 47.8 53"/></g><g><path stroke="black" stroke-dasharray="none" d="M 162 330 162 377 244 377" fill="none"/><path fill="black" stroke="black" d="M 8 0 L 0 4 L 8 8 z" transform="translate(166,322) scale(1,1) rotate(-270)"/><path fill="black" stroke="black" d="M 8 0 L 0 4 L 8 8 z" transform="translate(252,381) scale(1,1) rotate(-180)"/><g><g label-idx="0" cursor="move" transform="translate(179.5, 377)"><rect fill="white" rx="3" ry="3" x="0" y="0" width="0" height="0"/><text text-anchor="middle" font-size="14pt" font-family="OpenSansCondensedLight" y="0.8em" display="none" xml:space="preserve" transform="translate(0,0)"/></g></g></g><g transform="translate(368,208)"><g><g>
<path d="M153,0H0v98h153V0L153,0z" stroke="#000000" stroke-dasharray="none" fill="#FFFFFF"/>
<rect x="6.7" y="4.5" width="139.6" height="89.1" fill="none"/>
<circle fill="none" cx="76.5" cy="0" r="0.1"/>
<circle fill="none" cx="114.4" cy="0" r="0.1"/>
<circle fill="none" cx="153" cy="24.7" r="0.1"/>
<circle fill="none" cx="153" cy="49" r="0.1"/>
<circle fill="none" cx="153" cy="73.3" r="0.1"/>
<circle fill="none" cx="114.4" cy="98" r="0.1"/>
<circle fill="none" cx="76.5" cy="98" r="0.1"/>
<circle fill="none" cx="38.6" cy="98" r="0.1"/>
<circle fill="none" cx="0" cy="73.3" r="0.1"/>
<circle fill="none" cx="0" cy="49" r="0.1"/>
<circle fill="none" cx="0" cy="24.7" r="0.1"/>
<circle fill="none" cx="38.6" cy="0" r="0.1"/>
</g></g><rect stroke="none" stroke-width="0" fill="#FFFFFF" x="0" y="0" width="0" height="0" transform="translate(152.9,48.9)"/><path stroke="#000000" fill="none" d=""/><text font-family="OpenSansCondensedLight" font-size="14pt" fill="black" transform="translate(152.9,48.9)"/><rect stroke-width="0" fill="none" width="139.6" height="89.1" transform="translate(6.7,4.5)"/><text font-family="OpenSansCondensedLight" font-size="14pt" fill="black" transform="translate(6.7,4.5)" text-anchor="middle"><tspan x="69.8" y="50.8">ROM 108</tspan></text><path stroke="#000000" fill="none" transform="translate(6.7,4.5)" d="M 79.4 53 107.4 53"/></g><g><path stroke="black" stroke-dasharray="none" d="M 334 375 442 375 442 314" fill="none"/><path fill="black" stroke="black" d="M 8 0 L 0 4 L 8 8 z" transform="translate(326,371) scale(1,1) rotate(0)"/><path fill="black" stroke="black" d="M 8 0 L 0 4 L 8 8 z" transform="translate(446,306) scale(1,1) rotate(-270)"/><g><g label-idx="0" cursor="move" transform="translate(418.5, 375)"><rect fill="white" rx="3" ry="3" x="0" y="0" width="0" height="0"/><text text-anchor="middle" font-size="14pt" font-family="OpenSansCondensedLight" y="0.8em" display="none" xml:space="preserve" transform="translate(0,0)"/></g></g></g><g transform="translate(199,450)"><g><g>
<path d="M182,0H0v55h182V0L182,0z" stroke="#000000" stroke-dasharray="none" fill="#FFFFFF"/>
<rect x="8" y="2.5" width="166.1" height="50" fill="none"/>
<circle fill="none" cx="91" cy="0" r="0.1"/>
<circle fill="none" cx="136.1" cy="0" r="0.1"/>
<circle fill="none" cx="182" cy="13.9" r="0.1"/>
<circle fill="none" cx="182" cy="27.5" r="0.1"/>
<circle fill="none" cx="182" cy="41.1" r="0.1"/>
<circle fill="none" cx="136.1" cy="55" r="0.1"/>
<circle fill="none" cx="91" cy="55" r="0.1"/>
<circle fill="none" cx="45.9" cy="55" r="0.1"/>
<circle fill="none" cx="0" cy="41.1" r="0.1"/>
<circle fill="none" cx="0" cy="27.5" r="0.1"/>
<circle fill="none" cx="0" cy="13.9" r="0.1"/>
<circle fill="none" cx="45.9" cy="0" r="0.1"/>
</g></g><rect stroke="none" stroke-width="0" fill="#FFFFFF" x="0" y="0" width="0" height="0" transform="translate(181.9,27.4)"/><path stroke="#000000" fill="none" d=""/><text font-family="OpenSansCondensedLight" font-size="14pt" fill="black" transform="translate(181.9,27.4)"/><rect stroke-width="0" fill="none" width="166.1" height="50" transform="translate(8,2.5)"/><text font-family="OpenSansCondensedLight" font-size="14pt" fill="black" transform="translate(8,2.5)" text-anchor="middle"><tspan x="83" y="20.8">PROCESSOR(S)</tspan><tspan x="83" y="41.8">110</tspan></text><path stroke="#000000" fill="none" transform="translate(8,2.5)" d="M 69.4 44 96.7 44"/></g><g><path stroke="black" stroke-dasharray="none" d="M 290 421 290 442" fill="none"/><path fill="black" stroke="black" d="M 8 0 L 0 4 L 8 8 z" transform="translate(294,413) scale(1,1) rotate(-270)"/><path fill="black" stroke="black" d="M 8 0 L 0 4 L 8 8 z" transform="translate(286,450) scale(1,1) rotate(-90)"/><g><g label-idx="0" cursor="move" transform="translate(290, 431.5)"><rect fill="white" rx="3" ry="3" x="0" y="0" width="0" height="0"/><text text-anchor="middle" font-size="14pt" font-family="OpenSansCondensedLight" y="0.8em" display="none" xml:space="preserve" transform="translate(0,0)"/></g></g></g><g transform="translate(90,567)"><g><g>
<path d="M77,0H0v76h77V0L77,0z" stroke="#000000" stroke-dasharray="none" fill="#FFFFFF"/>
<rect x="3.4" y="3.5" width="70.3" height="69.1" fill="none"/>
<circle fill="none" cx="38.5" cy="0" r="0.1"/>
<circle fill="none" cx="57.6" cy="0" r="0.1"/>
<circle fill="none" cx="77" cy="19.2" r="0.1"/>
<circle fill="none" cx="77" cy="38" r="0.1"/>
<circle fill="none" cx="77" cy="56.8" r="0.1"/>
<circle fill="none" cx="57.6" cy="76" r="0.1"/>
<circle fill="none" cx="38.5" cy="76" r="0.1"/>
<circle fill="none" cx="19.4" cy="76" r="0.1"/>
<circle fill="none" cx="0" cy="56.8" r="0.1"/>
<circle fill="none" cx="0" cy="38" r="0.1"/>
<circle fill="none" cx="0" cy="19.2" r="0.1"/>
<circle fill="none" cx="19.4" cy="0" r="0.1"/>
</g></g><rect stroke="none" stroke-width="0" fill="#FFFFFF" x="0" y="0" width="0" height="0" transform="translate(76.9,37.9)"/><path stroke="#000000" fill="none" d=""/><text font-family="OpenSansCondensedLight" font-size="14pt" fill="black" transform="translate(76.9,37.9)"/><rect stroke-width="0" fill="none" width="70.3" height="69.1" transform="translate(3.4,3.5)"/><text font-family="OpenSansCondensedLight" font-size="14pt" fill="black" transform="translate(3.4,3.5)" text-anchor="middle"><tspan x="35.1" y="30.3">RADIO</tspan><tspan x="35.1" y="51.3">112</tspan></text><path stroke="#000000" fill="none" transform="translate(3.4,3.5)" d="M 21.5 53 48.8 53"/></g><g><path stroke="black" stroke-dasharray="none" d="M 127 559 127 482 191 482" fill="none"/><path fill="black" stroke="black" d="M 8 0 L 0 4 L 8 8 z" transform="translate(123,567) scale(1,1) rotate(-90)"/><path fill="black" stroke="black" d="M 8 0 L 0 4 L 8 8 z" transform="translate(199,486) scale(1,1) rotate(-180)"/><g><g label-idx="0" cursor="move" transform="translate(127, 488.5)"><rect fill="white" rx="3" ry="3" x="0" y="0" width="0" height="0"/><text text-anchor="middle" font-size="14pt" font-family="OpenSansCondensedLight" y="0.8em" display="none" xml:space="preserve" transform="translate(0,0)"/></g></g></g><g transform="translate(228,569)"><g><g>
<path d="M170,0H0v75h170V0L170,0z" stroke="#000000" stroke-dasharray="none" fill="#FFFFFF"/>
<rect x="7.4" y="3.4" width="155.1" height="68.2" fill="none"/>
<circle fill="none" cx="85" cy="0" r="0.1"/>
<circle fill="none" cx="127.1" cy="0" r="0.1"/>
<circle fill="none" cx="170" cy="18.9" r="0.1"/>
<circle fill="none" cx="170" cy="37.5" r="0.1"/>
<circle fill="none" cx="170" cy="56.1" r="0.1"/>
<circle fill="none" cx="127.1" cy="75" r="0.1"/>
<circle fill="none" cx="85" cy="75" r="0.1"/>
<circle fill="none" cx="42.9" cy="75" r="0.1"/>
<circle fill="none" cx="0" cy="56.1" r="0.1"/>
<circle fill="none" cx="0" cy="37.5" r="0.1"/>
<circle fill="none" cx="0" cy="18.9" r="0.1"/>
<circle fill="none" cx="42.9" cy="0" r="0.1"/>
</g></g><rect stroke="none" stroke-width="0" fill="#FFFFFF" x="0" y="0" width="0" height="0" transform="translate(169.9,37.4)"/><path stroke="#000000" fill="none" d=""/><text font-family="OpenSansCondensedLight" font-size="14pt" fill="black" transform="translate(169.9,37.4)"/><rect stroke-width="0" fill="none" width="155.1" height="68.2" transform="translate(7.4,3.4)"/><text font-family="OpenSansCondensedLight" font-size="14pt" fill="black" transform="translate(7.4,3.4)" text-anchor="middle"><tspan x="77.6" y="29.9">COMMUNICATION</tspan><tspan x="77.6" y="50.9">CHAIN 114</tspan></text><path stroke="#000000" fill="none" transform="translate(7.4,3.4)" d="M 95.8 53 123.1 53"/></g><g><path stroke="black" stroke-dasharray="none" d="M 220 605 175 605" fill="none"/><path fill="black" stroke="black" d="M 8 0 L 0 4 L 8 8 z" transform="translate(228,609) scale(1,1) rotate(-180)"/><path fill="black" stroke="black" d="M 8 0 L 0 4 L 8 8 z" transform="translate(167,601) scale(1,1) rotate(0)"/><g><g label-idx="0" cursor="move" transform="translate(197.5, 605)"><rect fill="white" rx="3" ry="3" x="0" y="0" width="0" height="0"/><text text-anchor="middle" font-size="14pt" font-family="OpenSansCondensedLight" y="0.8em" display="none" xml:space="preserve" transform="translate(0,0)"/></g></g></g><g transform="translate(466,586)"><g transform="rotate(270,26,23)"><g>
<g fill="#FFFFFF">
    <path d="M50.2,31.3h-4.5V8.6c0.6,-0.2,1,-0.8,1,-1.6c0,-0.9,-0.7,-1.6,-1.5,-1.6s-1.5,0.7,-1.5,1.6c0,0.7,0.5,1.4,1.1,1.6v22.8H0.5C0.3,31.3,0,31.7,0,32.1v13.2c0,0.3,0.2,0.7,0.5,0.7h49.7c0.2,0,0.5,-0.3,0.5,-0.7V32.1C50.8,31.7,50.5,31.3,50.2,31.3z"/>
    <path d="M42.1,13.6c-2.1,-1.2,-3.6,-3.6,-3.6,-6.4C38.5,3.2,41.6,0,45.3,0s6.7,3.2,6.7,7.2c0,2.8,-1.5,5.2,-3.6,6.4"/>
</g>
<g stroke="#000000" stroke-dasharray="none">
    <path fill="none" d="M44.8,8.9h0.9v22.4h-0.9V8.9z"/>
    <path fill="none" stroke-linejoin="round" d="M0.5,31.3h49.7c0.3,0,0.5,0.4,0.5,0.7v13.2c0,0.4,-0.3,0.7,-0.5,0.7H0.5c-0.3,0,-0.5,-0.4,-0.5,-0.7V32.1C0,31.7,0.3,31.3,0.5,31.3"/>
    <ellipse fill="none" stroke-linejoin="round" cx="45.3" cy="7" rx="1.5" ry="1.6"/>
    <path fill="none" stroke-linejoin="round" d="M43.3,10.9c-1.2,-0.8,-2.1,-2.1,-2.1,-3.8c0,-2.4,1.8,-4.3,4.1,-4.3s4.1,1.9,4.1,4.3c0,1.6,-0.8,3,-2.1,3.8"/>
    <path fill="none" stroke-linejoin="round" d="M42.1,13.6c-2.1,-1.2,-3.6,-3.6,-3.6,-6.4C38.5,3.2,41.6,0,45.3,0s6.7,3.2,6.7,7.2c0,2.8,-1.5,5.2,-3.6,6.4"/>
    <g>
        <path fill="none" stroke-linejoin="round" d="M15.8,40.8c0,0.3,-0.3,0.6,-0.6,0.6h-9.1c-0.4,0,-0.6,-0.3,-0.6,-0.6v-4.2c0,-0.4,0.2,-0.6,0.6,-0.6H15.2c0.3,0,0.6,0.3,0.6,0.6L15.8,40.8L15.8,40.8z"/>
    </g>
    <g>
        <path fill="none" stroke-linejoin="round" d="M30.5,40.8c0,0.3,-0.3,0.6,-0.6,0.6H20.9c-0.3,0,-0.6,-0.3,-0.6,-0.6v-4.2c0,-0.4,0.3,-0.6,0.6,-0.6h9c0.3,0,0.6,0.3,0.6,0.6L30.5,40.8L30.5,40.8z"/>
    </g>
    <g>
        <path fill="none" stroke-linejoin="round" d="M45.3,40.8c0,0.3,-0.2,0.6,-0.6,0.6H35.6c-0.4,0,-0.6,-0.3,-0.6,-0.6v-4.2c0,-0.4,0.2,-0.6,0.6,-0.6h9c0.4,0,0.6,0.3,0.6,0.6V40.8z"/>
    </g>
</g>
<rect x="3.7" y="8.6" fill="none" width="40" height="21.3"/>
<circle fill="none" cx="38.5" cy="6.8" r="0.1"/>
<circle fill="none" cx="45.3" cy="0" r="0.1"/>
<circle fill="none" cx="52" cy="7" r="0.1"/>
<circle fill="none" cx="50.8" cy="38.7" r="0.1"/>
<circle fill="none" cx="40.2" cy="46" r="0.1"/>
<circle fill="none" cx="25.4" cy="46" r="0.1"/>
<circle fill="none" cx="10.7" cy="45.9" r="0.1"/>
<circle fill="none" cx="0" cy="43" r="0.1"/>
<circle fill="none" cx="0" cy="38.7" r="0.1"/>
<circle fill="none" cx="0" cy="34.4" r="0.1"/>
<circle fill="none" cx="10.6" cy="31.3" r="0.1"/>
<circle fill="none" cx="25.4" cy="31.3" r="0.1"/>
</g></g><rect stroke="none" stroke-width="1" fill="#FFFFFF" x="0" y="0" width="40" height="20" transform="translate(80.8,-16.5)"/><path stroke="#000000" fill="none" d="M49,23.6 C72.2,29.8 60.4,-2.7 83.6 3.5"/><text font-family="OpenSansCondensedLight" font-size="14pt" fill="black" transform="translate(80.8,-16.5)" text-anchor="middle"><tspan x="20" y="16.3">116</tspan></text><rect stroke-width="0" fill="none" width="138.5" transform="translate(-43.2,-13.1)"/><text font-family="OpenSansCondensedLight" font-size="14pt" fill="black" transform="translate(-43.2,-13.1)" text-anchor="middle"><tspan x="69.2" y="-4.2">ANTENNA</tspan></text><path stroke="#000000" fill="none" transform="translate(-43.2,-13.1)" d="M 0 0"/></g><g><path stroke="black" stroke-dasharray="none" d="M 469 588 398 588" fill="none"/><path fill="black" stroke="black" d="" transform="translate(469,588) scale(1,1) rotate(-180)"/><path fill="black" stroke="black" d="" transform="translate(398,588) scale(1,1) rotate(0)"/><g><g label-idx="0" cursor="move" transform="translate(433.5, 588)"><rect fill="white" rx="3" ry="3" x="0" y="0" width="0" height="0"/><text text-anchor="middle" font-size="14pt" font-family="OpenSansCondensedLight" y="0.8em" display="none" xml:space="preserve" transform="translate(0,0)"/></g></g></g><g transform="translate(428,439)"><g><g>
<path d="M79,0H0v71h79V0L79,0z" stroke="#000000" stroke-dasharray="none" fill="#FFFFFF"/>
<rect x="3.5" y="3.2" width="72.1" height="64.5" fill="none"/>
<circle fill="none" cx="39.5" cy="0" r="0.1"/>
<circle fill="none" cx="59.1" cy="0" r="0.1"/>
<circle fill="none" cx="79" cy="17.9" r="0.1"/>
<circle fill="none" cx="79" cy="35.5" r="0.1"/>
<circle fill="none" cx="79" cy="53.1" r="0.1"/>
<circle fill="none" cx="59.1" cy="71" r="0.1"/>
<circle fill="none" cx="39.5" cy="71" r="0.1"/>
<circle fill="none" cx="19.9" cy="71" r="0.1"/>
<circle fill="none" cx="0" cy="53.1" r="0.1"/>
<circle fill="none" cx="0" cy="35.5" r="0.1"/>
<circle fill="none" cx="0" cy="17.9" r="0.1"/>
<circle fill="none" cx="19.9" cy="0" r="0.1"/>
</g></g><rect stroke="none" stroke-width="0" fill="#FFFFFF" x="0" y="0" width="0" height="0" transform="translate(78.9,35.4)"/><path stroke="#000000" fill="none" d=""/><text font-family="OpenSansCondensedLight" font-size="14pt" fill="black" transform="translate(78.9,35.4)"/><rect stroke-width="0" fill="none" width="72.1" height="64.5" transform="translate(3.5,3.2)"/><text font-family="OpenSansCondensedLight" font-size="14pt" fill="black" transform="translate(3.5,3.2)" text-anchor="middle"><tspan x="36" y="17.6">NETWORK</tspan><tspan x="36" y="38.6">PORT</tspan><tspan x="36" y="59.6">118</tspan></text><path stroke="#000000" fill="none" transform="translate(3.5,3.2)" d="M 22.4 62 49.7 62"/></g><g><path stroke="black" stroke-dasharray="none" d="M 420 477 389 477" fill="none"/><path fill="black" stroke="black" d="M 8 0 L 0 4 L 8 8 z" transform="translate(428,481) scale(1,1) rotate(-180)"/><path fill="black" stroke="black" d="M 8 0 L 0 4 L 8 8 z" transform="translate(381,473) scale(1,1) rotate(0)"/><g><g label-idx="0" cursor="move" transform="translate(404.5, 477)"><rect fill="white" rx="3" ry="3" x="0" y="0" width="0" height="0"/><text text-anchor="middle" font-size="14pt" font-family="OpenSansCondensedLight" y="0.8em" display="none" xml:space="preserve" transform="translate(0,0)"/></g></g></g></g><defs/></svg>