<svg xmlns="http://www.w3.org/2000/svg" xmlns:xlink="http://www.w3.org/1999/xlink" version="1.1" width="657.1" height="849.1" viewBox="27.2 24.9 657.1 849.1"><g><g transform="translate(31,25)"><g><g>
<path d="M626,0H0v824h626V0L626,0z" stroke="#000000" stroke-dasharray="none" fill="#FFFFFF"/>
<rect x="27.4" y="37.6" width="571.3" height="748.8" fill="none"/>
<circle fill="none" cx="313" cy="0" r="0.1"/>
<circle fill="none" cx="468.1" cy="0" r="0.1"/>
<circle fill="none" cx="626" cy="207.8" r="0.1"/>
<circle fill="none" cx="626" cy="412" r="0.1"/>
<circle fill="none" cx="626" cy="616.2" r="0.1"/>
<circle fill="none" cx="468.1" cy="824" r="0.1"/>
<circle fill="none" cx="313" cy="824" r="0.1"/>
<circle fill="none" cx="157.9" cy="824" r="0.1"/>
<circle fill="none" cx="0" cy="616.2" r="0.1"/>
<circle fill="none" cx="0" cy="412" r="0.1"/>
<circle fill="none" cx="0" cy="207.8" r="0.1"/>
<circle fill="none" cx="157.9" cy="0" r="0.1"/>
</g></g><rect stroke="none" stroke-width="0" fill="#FFFFFF" x="0" y="0" width="0" height="0" transform="translate(625.9,411.9)"/><path stroke="#000000" fill="none" d=""/><text font-family="OpenSansCondensedLight" font-size="14pt" fill="black" transform="translate(625.9,411.9)"/><rect stroke-width="0" fill="none" width="571.3" height="748.8" transform="translate(27.4,37.6)"/><text font-family="OpenSansCondensedLight" font-size="14pt" fill="black" transform="translate(27.4,37.6)" text-anchor="middle"><tspan x="285.6" y="16.8">CLIENT STATION 212</tspan></text><path stroke="#000000" fill="none" transform="translate(27.4,37.6)" d="M 347.6 19 375.6 19"/></g><g transform="translate(123,176)"><g><g>
<path d="M397,0H0v446h397V0L397,0z" stroke="#000000" stroke-dasharray="none" fill="#FFFFFF"/>
<rect x="17.4" y="20.3" width="362.3" height="405.3" fill="none"/>
<circle fill="none" cx="198.5" cy="0" r="0.1"/>
<circle fill="none" cx="296.9" cy="0" r="0.1"/>
<circle fill="none" cx="397" cy="112.5" r="0.1"/>
<circle fill="none" cx="397" cy="223" r="0.1"/>
<circle fill="none" cx="397" cy="333.5" r="0.1"/>
<circle fill="none" cx="296.9" cy="446" r="0.1"/>
<circle fill="none" cx="198.5" cy="446" r="0.1"/>
<circle fill="none" cx="100.2" cy="446" r="0.1"/>
<circle fill="none" cx="0" cy="333.5" r="0.1"/>
<circle fill="none" cx="0" cy="223" r="0.1"/>
<circle fill="none" cx="0" cy="112.5" r="0.1"/>
<circle fill="none" cx="100.2" cy="0" r="0.1"/>
</g></g><rect stroke="none" stroke-width="0" fill="#FFFFFF" x="0" y="0" width="0" height="0" transform="translate(396.9,222.9)"/><path stroke="#000000" fill="none" d=""/><text font-family="OpenSansCondensedLight" font-size="14pt" fill="black" transform="translate(396.9,222.9)"/><rect stroke-width="0" fill="none" width="362.3" height="405.3" transform="translate(17.4,20.3)"/><text font-family="OpenSansCondensedLight" font-size="14pt" fill="black" transform="translate(17.4,20.3)" text-anchor="middle"><tspan x="181.1" y="16.8">SOC 220</tspan></text><path stroke="#000000" fill="none" transform="translate(17.4,20.3)" d="M 187.6 19 215.6 19"/></g><g transform="translate(139,206)"><g><g>
<path d="M110,0H0v98h110V0L110,0z" stroke="#000000" stroke-dasharray="none" fill="#FFFFFF"/>
<rect x="4.8" y="4.5" width="100.4" height="89.1" fill="none"/>
<circle fill="none" cx="55" cy="0" r="0.1"/>
<circle fill="none" cx="82.3" cy="0" r="0.1"/>
<circle fill="none" cx="110" cy="24.7" r="0.1"/>
<circle fill="none" cx="110" cy="49" r="0.1"/>
<circle fill="none" cx="110" cy="73.3" r="0.1"/>
<circle fill="none" cx="82.3" cy="98" r="0.1"/>
<circle fill="none" cx="55" cy="98" r="0.1"/>
<circle fill="none" cx="27.8" cy="98" r="0.1"/>
<circle fill="none" cx="0" cy="73.3" r="0.1"/>
<circle fill="none" cx="0" cy="49" r="0.1"/>
<circle fill="none" cx="0" cy="24.7" r="0.1"/>
<circle fill="none" cx="27.8" cy="0" r="0.1"/>
</g></g><rect stroke="none" stroke-width="0" fill="#FFFFFF" x="0" y="0" width="0" height="0" transform="translate(109.9,48.9)"/><path stroke="#000000" fill="none" d=""/><text font-family="OpenSansCondensedLight" font-size="14pt" fill="black" transform="translate(109.9,48.9)"/><rect stroke-width="0" fill="none" width="100.4" height="89.1" transform="translate(4.8,4.5)"/><text font-family="OpenSansCondensedLight" font-size="14pt" fill="black" transform="translate(4.8,4.5)" text-anchor="middle"><tspan x="50.2" y="40.3">MEMORY</tspan><tspan x="50.2" y="61.3">202</tspan></text><path stroke="#000000" fill="none" transform="translate(4.8,4.5)" d="M 36.2 63 64.2 63"/></g><g transform="translate(282,298)"><g><g>
<path d="M74,0H0v74h74V0L74,0z" stroke="#000000" stroke-dasharray="none" fill="#FFFFFF"/>
<rect x="3.2" y="3.4" width="67.5" height="67.3" fill="none"/>
<circle fill="none" cx="37" cy="0" r="0.1"/>
<circle fill="none" cx="55.3" cy="0" r="0.1"/>
<circle fill="none" cx="74" cy="18.7" r="0.1"/>
<circle fill="none" cx="74" cy="37" r="0.1"/>
<circle fill="none" cx="74" cy="55.3" r="0.1"/>
<circle fill="none" cx="55.3" cy="74" r="0.1"/>
<circle fill="none" cx="37" cy="74" r="0.1"/>
<circle fill="none" cx="18.7" cy="74" r="0.1"/>
<circle fill="none" cx="0" cy="55.3" r="0.1"/>
<circle fill="none" cx="0" cy="37" r="0.1"/>
<circle fill="none" cx="0" cy="18.7" r="0.1"/>
<circle fill="none" cx="18.7" cy="0" r="0.1"/>
</g></g><rect stroke="none" stroke-width="0" fill="#FFFFFF" x="0" y="0" width="0" height="0" transform="translate(73.9,36.9)"/><path stroke="#000000" fill="none" d=""/><text font-family="OpenSansCondensedLight" font-size="14pt" fill="black" transform="translate(73.9,36.9)"/><rect stroke-width="0" fill="none" width="67.5" height="67.3" transform="translate(3.2,3.4)"/><text font-family="OpenSansCondensedLight" font-size="14pt" fill="black" transform="translate(3.2,3.4)" text-anchor="middle"><tspan x="33.8" y="29.4">MMU</tspan><tspan x="33.8" y="50.4">204</tspan></text><path stroke="#000000" fill="none" transform="translate(3.2,3.4)" d="M 19.8 53 47.8 53"/></g><g><path stroke="black" stroke-dasharray="none" d="M 192 312 192.5 336 274 336" fill="none"/><path fill="black" stroke="black" d="M 8 0 L 0 4 L 8 8 z" transform="translate(196,303.9) scale(1,1) rotate(89.2)"/><path fill="black" stroke="black" d="M 8 0 L 0 4 L 8 8 z" transform="translate(282,340) scale(1,1) rotate(-180)"/><g><g label-idx="0" cursor="move" transform="translate(221.2, 336)"><rect fill="white" rx="3" ry="3" x="0" y="0" width="0" height="0"/><text text-anchor="middle" font-size="14pt" font-family="OpenSansCondensedLight" y="0.8em" display="none" xml:space="preserve" transform="translate(0,0)"/></g></g></g><g transform="translate(395,205)"><g><g>
<path d="M110,0H0v98h110V0L110,0z" stroke="#000000" stroke-dasharray="none" fill="#FFFFFF"/>
<rect x="4.8" y="4.5" width="100.4" height="89.1" fill="none"/>
<circle fill="none" cx="55" cy="0" r="0.1"/>
<circle fill="none" cx="82.3" cy="0" r="0.1"/>
<circle fill="none" cx="110" cy="24.7" r="0.1"/>
<circle fill="none" cx="110" cy="49" r="0.1"/>
<circle fill="none" cx="110" cy="73.3" r="0.1"/>
<circle fill="none" cx="82.3" cy="98" r="0.1"/>
<circle fill="none" cx="55" cy="98" r="0.1"/>
<circle fill="none" cx="27.8" cy="98" r="0.1"/>
<circle fill="none" cx="0" cy="73.3" r="0.1"/>
<circle fill="none" cx="0" cy="49" r="0.1"/>
<circle fill="none" cx="0" cy="24.7" r="0.1"/>
<circle fill="none" cx="27.8" cy="0" r="0.1"/>
</g></g><rect stroke="none" stroke-width="0" fill="#FFFFFF" x="0" y="0" width="0" height="0" transform="translate(109.9,48.9)"/><path stroke="#000000" fill="none" d=""/><text font-family="OpenSansCondensedLight" font-size="14pt" fill="black" transform="translate(109.9,48.9)"/><rect stroke-width="0" fill="none" width="100.4" height="89.1" transform="translate(4.8,4.5)"/><text font-family="OpenSansCondensedLight" font-size="14pt" fill="black" transform="translate(4.8,4.5)" text-anchor="middle"><tspan x="50.2" y="50.8">ROM 206</tspan></text><path stroke="#000000" fill="none" transform="translate(4.8,4.5)" d="M 59.8 53 87.8 53"/></g><g><path stroke="black" stroke-dasharray="none" d="M 364 334 448 334 448 311" fill="none"/><path fill="black" stroke="black" d="M 8 0 L 0 4 L 8 8 z" transform="translate(356,330) scale(1,1) rotate(0)"/><path fill="black" stroke="black" d="M 8 0 L 0 4 L 8 8 z" transform="translate(452,303) scale(1,1) rotate(-270)"/><g><g label-idx="0" cursor="move" transform="translate(417.5, 334)"><rect fill="white" rx="3" ry="3" x="0" y="0" width="0" height="0"/><text text-anchor="middle" font-size="14pt" font-family="OpenSansCondensedLight" y="0.8em" display="none" xml:space="preserve" transform="translate(0,0)"/></g></g></g><g transform="translate(228,412)"><g><g>
<path d="M182,0H0v55h182V0L182,0z" stroke="#000000" stroke-dasharray="none" fill="#FFFFFF"/>
<rect x="8" y="2.5" width="166.1" height="50" fill="none"/>
<circle fill="none" cx="91" cy="0" r="0.1"/>
<circle fill="none" cx="136.1" cy="0" r="0.1"/>
<circle fill="none" cx="182" cy="13.9" r="0.1"/>
<circle fill="none" cx="182" cy="27.5" r="0.1"/>
<circle fill="none" cx="182" cy="41.1" r="0.1"/>
<circle fill="none" cx="136.1" cy="55" r="0.1"/>
<circle fill="none" cx="91" cy="55" r="0.1"/>
<circle fill="none" cx="45.9" cy="55" r="0.1"/>
<circle fill="none" cx="0" cy="41.1" r="0.1"/>
<circle fill="none" cx="0" cy="27.5" r="0.1"/>
<circle fill="none" cx="0" cy="13.9" r="0.1"/>
<circle fill="none" cx="45.9" cy="0" r="0.1"/>
</g></g><rect stroke="none" stroke-width="0" fill="#FFFFFF" x="0" y="0" width="0" height="0" transform="translate(181.9,27.4)"/><path stroke="#000000" fill="none" d=""/><text font-family="OpenSansCondensedLight" font-size="14pt" fill="black" transform="translate(181.9,27.4)"/><rect stroke-width="0" fill="none" width="166.1" height="50" transform="translate(8,2.5)"/><text font-family="OpenSansCondensedLight" font-size="14pt" fill="black" transform="translate(8,2.5)" text-anchor="middle"><tspan x="83" y="20.8">PROCESSOR(S)</tspan><tspan x="83" y="41.8">208</tspan></text><path stroke="#000000" fill="none" transform="translate(8,2.5)" d="M 69.1 44 97 44"/></g><g><path stroke="black" stroke-dasharray="none" d="M 319 380 319 404" fill="none"/><path fill="black" stroke="black" d="M 8 0 L 0 4 L 8 8 z" transform="translate(323,372) scale(1,1) rotate(-270)"/><path fill="black" stroke="black" d="M 8 0 L 0 4 L 8 8 z" transform="translate(315,412) scale(1,1) rotate(-90)"/><g><g label-idx="0" cursor="move" transform="translate(319, 392)"><rect fill="white" rx="3" ry="3" x="0" y="0" width="0" height="0"/><text text-anchor="middle" font-size="14pt" font-family="OpenSansCondensedLight" y="0.8em" display="none" xml:space="preserve" transform="translate(0,0)"/></g></g></g><g transform="translate(234,515)"><g><g>
<path d="M170,0H0v75h170V0L170,0z" stroke="#000000" stroke-dasharray="none" fill="#FFFFFF"/>
<rect x="7.4" y="3.4" width="155.1" height="68.2" fill="none"/>
<circle fill="none" cx="85" cy="0" r="0.1"/>
<circle fill="none" cx="127.1" cy="0" r="0.1"/>
<circle fill="none" cx="170" cy="18.9" r="0.1"/>
<circle fill="none" cx="170" cy="37.5" r="0.1"/>
<circle fill="none" cx="170" cy="56.1" r="0.1"/>
<circle fill="none" cx="127.1" cy="75" r="0.1"/>
<circle fill="none" cx="85" cy="75" r="0.1"/>
<circle fill="none" cx="42.9" cy="75" r="0.1"/>
<circle fill="none" cx="0" cy="56.1" r="0.1"/>
<circle fill="none" cx="0" cy="37.5" r="0.1"/>
<circle fill="none" cx="0" cy="18.9" r="0.1"/>
<circle fill="none" cx="42.9" cy="0" r="0.1"/>
</g></g><rect stroke="none" stroke-width="0" fill="#FFFFFF" x="0" y="0" width="0" height="0" transform="translate(169.9,37.4)"/><path stroke="#000000" fill="none" d=""/><text font-family="OpenSansCondensedLight" font-size="14pt" fill="black" transform="translate(169.9,37.4)"/><rect stroke-width="0" fill="none" width="155.1" height="68.2" transform="translate(7.4,3.4)"/><text font-family="OpenSansCondensedLight" font-size="14pt" fill="black" transform="translate(7.4,3.4)" text-anchor="middle"><tspan x="77.6" y="29.9">DISPLAY</tspan><tspan x="77.6" y="50.9">CIRCUITRY 210</tspan></text><path stroke="#000000" fill="none" transform="translate(7.4,3.4)" d="M 115.7 53 143.7 53"/></g><g transform="translate(344,98)"><g><g>
<path d="M112,0H0v56h112V0L112,0z" stroke="#000000" stroke-dasharray="none" fill="#FFFFFF"/>
<rect x="4.9" y="2.6" width="102.2" height="50.9" fill="none"/>
<circle fill="none" cx="56" cy="0" r="0.1"/>
<circle fill="none" cx="83.8" cy="0" r="0.1"/>
<circle fill="none" cx="112" cy="14.1" r="0.1"/>
<circle fill="none" cx="112" cy="28" r="0.1"/>
<circle fill="none" cx="112" cy="41.9" r="0.1"/>
<circle fill="none" cx="83.8" cy="56" r="0.1"/>
<circle fill="none" cx="56" cy="56" r="0.1"/>
<circle fill="none" cx="28.3" cy="56" r="0.1"/>
<circle fill="none" cx="0" cy="41.9" r="0.1"/>
<circle fill="none" cx="0" cy="28" r="0.1"/>
<circle fill="none" cx="0" cy="14.1" r="0.1"/>
<circle fill="none" cx="28.3" cy="0" r="0.1"/>
</g></g><rect stroke="none" stroke-width="0" fill="#FFFFFF" x="0" y="0" width="0" height="0" transform="translate(111.9,27.9)"/><path stroke="#000000" fill="none" d=""/><text font-family="OpenSansCondensedLight" font-size="14pt" fill="black" transform="translate(111.9,27.9)"/><rect stroke-width="0" fill="none" width="102.2" height="50.9" transform="translate(4.9,2.6)"/><text font-family="OpenSansCondensedLight" font-size="14pt" fill="black" transform="translate(4.9,2.6)" text-anchor="middle"><tspan x="51.1" y="31.7">NAND    214</tspan></text><path stroke="#000000" fill="none" transform="translate(4.9,2.6)" d="M 66.4 34 94.4 34"/></g><g><path stroke="black" stroke-dasharray="none" d="M 370 162 339 290" fill="none"/><path fill="black" stroke="black" d="M 8 0 L 0 4 L 8 8 z" transform="translate(375.9,154.9) scale(1,1) rotate(-256.3)"/><path fill="black" stroke="black" d="M 8 0 L 0 4 L 8 8 z" transform="translate(333.1,297.1) scale(1,1) rotate(-76.3)"/><g><g label-idx="0" cursor="move" transform="translate(354.5, 226)"><rect fill="white" rx="3" ry="3" x="0" y="0" width="0" height="0"/><text text-anchor="middle" font-size="14pt" font-family="OpenSansCondensedLight" y="0.8em" display="none" xml:space="preserve" transform="translate(0,0)"/></g></g></g><g transform="translate(546,676)"><g transform="rotate(270,14.5,18)"><g>
<g fill="#FFFFFF">
    <path d="M28,24.5h-2.5V6.7c0.3,-0.2,0.6,-0.7,0.6,-1.2c0,-0.7,-0.4,-1.3,-0.8,-1.3s-0.8,0.6,-0.8,1.3c0,0.6,0.3,1.1,0.6,1.2v17.8H0.3C0.2,24.5,0,24.8,0,25.1v10.3c0,0.3,0.1,0.6,0.3,0.6h27.7c0.1,0,0.3,-0.3,0.3,-0.6V25.1C28.3,24.8,28.2,24.5,28,24.5z"/>
    <path d="M23.5,10.6c-1.2,-1,-2,-2.8,-2,-5C21.5,2.5,23.2,0,25.2,0s3.8,2.5,3.8,5.6c0,2.2,-0.8,4.1,-2,5"/>
</g>
<g stroke="#000000" stroke-dasharray="none">
    <path fill="none" d="M25,7h0.5v17.6h-0.5V7z"/>
    <path fill="none" stroke-linejoin="round" d="M0.3,24.5h27.7c0.2,0,0.3,0.3,0.3,0.6v10.4c0,0.3,-0.2,0.6,-0.3,0.6H0.3c-0.2,0,-0.3,-0.3,-0.3,-0.6V25.1C0,24.8,0.2,24.5,0.3,24.5"/>
    <ellipse fill="none" stroke-linejoin="round" cx="25.2" cy="5.5" rx="0.8" ry="1.3"/>
    <path fill="none" stroke-linejoin="round" d="M24.1,8.5c-0.7,-0.6,-1.2,-1.7,-1.2,-2.9c0,-1.9,1,-3.4,2.3,-3.4s2.3,1.5,2.3,3.4c0,1.3,-0.5,2.4,-1.2,2.9"/>
    <path fill="none" stroke-linejoin="round" d="M23.5,10.6c-1.2,-1,-2,-2.8,-2,-5C21.5,2.5,23.2,0,25.2,0s3.8,2.5,3.8,5.6c0,2.2,-0.8,4.1,-2,5"/>
    <g>
        <path fill="none" stroke-linejoin="round" d="M8.8,31.9c0,0.3,-0.2,0.5,-0.3,0.5h-5.1c-0.2,0,-0.3,-0.3,-0.3,-0.5v-3.3c0,-0.3,0.1,-0.5,0.3,-0.5H8.5c0.2,0,0.3,0.2,0.3,0.5L8.8,31.9L8.8,31.9z"/>
    </g>
    <g>
        <path fill="none" stroke-linejoin="round" d="M17,31.9c0,0.3,-0.2,0.5,-0.3,0.5H11.6c-0.2,0,-0.3,-0.3,-0.3,-0.5v-3.3c0,-0.3,0.2,-0.5,0.3,-0.5h5c0.2,0,0.3,0.2,0.3,0.5L17,31.9L17,31.9z"/>
    </g>
    <g>
        <path fill="none" stroke-linejoin="round" d="M25.2,31.9c0,0.3,-0.1,0.5,-0.3,0.5H19.9c-0.2,0,-0.3,-0.3,-0.3,-0.5v-3.3c0,-0.3,0.1,-0.5,0.3,-0.5h5c0.2,0,0.3,0.2,0.3,0.5V31.9z"/>
    </g>
</g>
<rect x="2.1" y="6.8" fill="none" width="22.3" height="16.7"/>
<circle fill="none" cx="21.5" cy="5.4" r="0.1"/>
<circle fill="none" cx="25.3" cy="0" r="0.1"/>
<circle fill="none" cx="29" cy="5.5" r="0.1"/>
<circle fill="none" cx="28.3" cy="30.3" r="0.1"/>
<circle fill="none" cx="22.4" cy="36" r="0.1"/>
<circle fill="none" cx="14.2" cy="36" r="0.1"/>
<circle fill="none" cx="6" cy="35.9" r="0.1"/>
<circle fill="none" cx="0" cy="33.7" r="0.1"/>
<circle fill="none" cx="0" cy="30.3" r="0.1"/>
<circle fill="none" cx="0" cy="26.9" r="0.1"/>
<circle fill="none" cx="5.9" cy="24.5" r="0.1"/>
<circle fill="none" cx="14.1" cy="24.5" r="0.1"/>
</g></g><rect stroke="none" stroke-width="1" fill="#FFFFFF" x="0" y="0" width="40" height="20" transform="translate(64.3,-21.8)"/><path stroke="#000000" fill="none" d="M32.5,18.3 C55.7,24.5 43.9,-7.9 67.1 -1.8"/><text font-family="OpenSansCondensedLight" font-size="14pt" fill="black" transform="translate(64.3,-21.8)" text-anchor="middle"><tspan x="20" y="16.3">228</tspan></text><rect stroke-width="0" fill="none" width="108.5" transform="translate(-39.7,-6.6)"/><text font-family="OpenSansCondensedLight" font-size="14pt" fill="black" transform="translate(-39.7,-6.6)" text-anchor="middle"><tspan x="54.3" y="-4.2">ANTENNA</tspan></text><path stroke="#000000" fill="none" transform="translate(-39.7,-6.6)" d="M 0 0"/></g><g><path stroke="black" stroke-dasharray="none" d="M 319 475 319 507" fill="none"/><path fill="black" stroke="black" d="M 8 0 L 0 4 L 8 8 z" transform="translate(323,467) scale(1,1) rotate(-270)"/><path fill="black" stroke="black" d="M 8 0 L 0 4 L 8 8 z" transform="translate(315,515) scale(1,1) rotate(-90)"/><g><g label-idx="0" cursor="move" transform="translate(319, 491)"><rect fill="white" rx="3" ry="3" x="0" y="0" width="0" height="0"/><text text-anchor="middle" font-size="14pt" font-family="OpenSansCondensedLight" y="0.8em" display="none" xml:space="preserve" transform="translate(0,0)"/></g></g></g><g transform="translate(551,747)"><g transform="rotate(270,14.5,18)"><g>
<g fill="#FFFFFF">
    <path d="M28,24.5h-2.5V6.7c0.3,-0.2,0.6,-0.7,0.6,-1.2c0,-0.7,-0.4,-1.3,-0.8,-1.3s-0.8,0.6,-0.8,1.3c0,0.6,0.3,1.1,0.6,1.2v17.8H0.3C0.2,24.5,0,24.8,0,25.1v10.3c0,0.3,0.1,0.6,0.3,0.6h27.7c0.1,0,0.3,-0.3,0.3,-0.6V25.1C28.3,24.8,28.2,24.5,28,24.5z"/>
    <path d="M23.5,10.6c-1.2,-1,-2,-2.8,-2,-5C21.5,2.5,23.2,0,25.2,0s3.8,2.5,3.8,5.6c0,2.2,-0.8,4.1,-2,5"/>
</g>
<g stroke="#000000" stroke-dasharray="none">
    <path fill="none" d="M25,7h0.5v17.6h-0.5V7z"/>
    <path fill="none" stroke-linejoin="round" d="M0.3,24.5h27.7c0.2,0,0.3,0.3,0.3,0.6v10.4c0,0.3,-0.2,0.6,-0.3,0.6H0.3c-0.2,0,-0.3,-0.3,-0.3,-0.6V25.1C0,24.8,0.2,24.5,0.3,24.5"/>
    <ellipse fill="none" stroke-linejoin="round" cx="25.2" cy="5.5" rx="0.8" ry="1.3"/>
    <path fill="none" stroke-linejoin="round" d="M24.1,8.5c-0.7,-0.6,-1.2,-1.7,-1.2,-2.9c0,-1.9,1,-3.4,2.3,-3.4s2.3,1.5,2.3,3.4c0,1.3,-0.5,2.4,-1.2,2.9"/>
    <path fill="none" stroke-linejoin="round" d="M23.5,10.6c-1.2,-1,-2,-2.8,-2,-5C21.5,2.5,23.2,0,25.2,0s3.8,2.5,3.8,5.6c0,2.2,-0.8,4.1,-2,5"/>
    <g>
        <path fill="none" stroke-linejoin="round" d="M8.8,31.9c0,0.3,-0.2,0.5,-0.3,0.5h-5.1c-0.2,0,-0.3,-0.3,-0.3,-0.5v-3.3c0,-0.3,0.1,-0.5,0.3,-0.5H8.5c0.2,0,0.3,0.2,0.3,0.5L8.8,31.9L8.8,31.9z"/>
    </g>
    <g>
        <path fill="none" stroke-linejoin="round" d="M17,31.9c0,0.3,-0.2,0.5,-0.3,0.5H11.6c-0.2,0,-0.3,-0.3,-0.3,-0.5v-3.3c0,-0.3,0.2,-0.5,0.3,-0.5h5c0.2,0,0.3,0.2,0.3,0.5L17,31.9L17,31.9z"/>
    </g>
    <g>
        <path fill="none" stroke-linejoin="round" d="M25.2,31.9c0,0.3,-0.1,0.5,-0.3,0.5H19.9c-0.2,0,-0.3,-0.3,-0.3,-0.5v-3.3c0,-0.3,0.1,-0.5,0.3,-0.5h5c0.2,0,0.3,0.2,0.3,0.5V31.9z"/>
    </g>
</g>
<rect x="2.1" y="6.8" fill="none" width="22.3" height="16.7"/>
<circle fill="none" cx="21.5" cy="5.4" r="0.1"/>
<circle fill="none" cx="25.3" cy="0" r="0.1"/>
<circle fill="none" cx="29" cy="5.5" r="0.1"/>
<circle fill="none" cx="28.3" cy="30.3" r="0.1"/>
<circle fill="none" cx="22.4" cy="36" r="0.1"/>
<circle fill="none" cx="14.2" cy="36" r="0.1"/>
<circle fill="none" cx="6" cy="35.9" r="0.1"/>
<circle fill="none" cx="0" cy="33.7" r="0.1"/>
<circle fill="none" cx="0" cy="30.3" r="0.1"/>
<circle fill="none" cx="0" cy="26.9" r="0.1"/>
<circle fill="none" cx="5.9" cy="24.5" r="0.1"/>
<circle fill="none" cx="14.1" cy="24.5" r="0.1"/>
</g></g><rect stroke="none" stroke-width="1" fill="#FFFFFF" x="0" y="0" width="40" height="20" transform="translate(64.3,-21.8)"/><path stroke="#000000" fill="none" d="M32.5,18.3 C55.7,24.5 43.9,-7.9 67.1 -1.8"/><text font-family="OpenSansCondensedLight" font-size="14pt" fill="black" transform="translate(64.3,-21.8)" text-anchor="middle"><tspan x="20" y="16.3">230</tspan></text><rect stroke-width="0" fill="none" width="108.5" transform="translate(-39.7,-6.6)"/><text font-family="OpenSansCondensedLight" font-size="14pt" fill="black" transform="translate(-39.7,-6.6)" text-anchor="middle"><tspan x="54.3" y="-4.2">ANTENNA</tspan></text><path stroke="#000000" fill="none" transform="translate(-39.7,-6.6)" d="M 0 0"/></g><g transform="translate(543,415)"><g><g>
<path d="M80,0H0v83h80V0L80,0z" stroke="#000000" stroke-dasharray="none" fill="#FFFFFF"/>
<rect x="3.5" y="3.8" width="73" height="75.4" fill="none"/>
<circle fill="none" cx="40" cy="0" r="0.1"/>
<circle fill="none" cx="59.8" cy="0" r="0.1"/>
<circle fill="none" cx="80" cy="20.9" r="0.1"/>
<circle fill="none" cx="80" cy="41.5" r="0.1"/>
<circle fill="none" cx="80" cy="62.1" r="0.1"/>
<circle fill="none" cx="59.8" cy="83" r="0.1"/>
<circle fill="none" cx="40" cy="83" r="0.1"/>
<circle fill="none" cx="20.2" cy="83" r="0.1"/>
<circle fill="none" cx="0" cy="62.1" r="0.1"/>
<circle fill="none" cx="0" cy="41.5" r="0.1"/>
<circle fill="none" cx="0" cy="20.9" r="0.1"/>
<circle fill="none" cx="20.2" cy="0" r="0.1"/>
</g></g><rect stroke="none" stroke-width="0" fill="#FFFFFF" x="0" y="0" width="0" height="0" transform="translate(79.9,41.4)"/><path stroke="#000000" fill="none" d=""/><text font-family="OpenSansCondensedLight" font-size="14pt" fill="black" transform="translate(79.9,41.4)"/><rect stroke-width="0" fill="none" width="73" height="75.4" transform="translate(3.5,3.8)"/><text font-family="OpenSansCondensedLight" font-size="14pt" fill="black" transform="translate(3.5,3.8)" text-anchor="middle"><tspan x="36.5" y="33.5">UICC(S)</tspan><tspan x="36.5" y="54.5">216</tspan></text><path stroke="#000000" fill="none" transform="translate(3.5,3.8)" d="M 22.5 57 50.5 57"/></g><g transform="translate(67,664)"><g transform="rotate(90,14.5,18)"><g>
<g fill="#FFFFFF">
    <path d="M28,24.5h-2.5V6.7c0.3,-0.2,0.6,-0.7,0.6,-1.2c0,-0.7,-0.4,-1.3,-0.8,-1.3s-0.8,0.6,-0.8,1.3c0,0.6,0.3,1.1,0.6,1.2v17.8H0.3C0.2,24.5,0,24.8,0,25.1v10.3c0,0.3,0.1,0.6,0.3,0.6h27.7c0.1,0,0.3,-0.3,0.3,-0.6V25.1C28.3,24.8,28.2,24.5,28,24.5z"/>
    <path d="M23.5,10.6c-1.2,-1,-2,-2.8,-2,-5C21.5,2.5,23.2,0,25.2,0s3.8,2.5,3.8,5.6c0,2.2,-0.8,4.1,-2,5"/>
</g>
<g stroke="#000000" stroke-dasharray="none">
    <path fill="none" d="M25,7h0.5v17.6h-0.5V7z"/>
    <path fill="none" stroke-linejoin="round" d="M0.3,24.5h27.7c0.2,0,0.3,0.3,0.3,0.6v10.4c0,0.3,-0.2,0.6,-0.3,0.6H0.3c-0.2,0,-0.3,-0.3,-0.3,-0.6V25.1C0,24.8,0.2,24.5,0.3,24.5"/>
    <ellipse fill="none" stroke-linejoin="round" cx="25.2" cy="5.5" rx="0.8" ry="1.3"/>
    <path fill="none" stroke-linejoin="round" d="M24.1,8.5c-0.7,-0.6,-1.2,-1.7,-1.2,-2.9c0,-1.9,1,-3.4,2.3,-3.4s2.3,1.5,2.3,3.4c0,1.3,-0.5,2.4,-1.2,2.9"/>
    <path fill="none" stroke-linejoin="round" d="M23.5,10.6c-1.2,-1,-2,-2.8,-2,-5C21.5,2.5,23.2,0,25.2,0s3.8,2.5,3.8,5.6c0,2.2,-0.8,4.1,-2,5"/>
    <g>
        <path fill="none" stroke-linejoin="round" d="M8.8,31.9c0,0.3,-0.2,0.5,-0.3,0.5h-5.1c-0.2,0,-0.3,-0.3,-0.3,-0.5v-3.3c0,-0.3,0.1,-0.5,0.3,-0.5H8.5c0.2,0,0.3,0.2,0.3,0.5L8.8,31.9L8.8,31.9z"/>
    </g>
    <g>
        <path fill="none" stroke-linejoin="round" d="M17,31.9c0,0.3,-0.2,0.5,-0.3,0.5H11.6c-0.2,0,-0.3,-0.3,-0.3,-0.5v-3.3c0,-0.3,0.2,-0.5,0.3,-0.5h5c0.2,0,0.3,0.2,0.3,0.5L17,31.9L17,31.9z"/>
    </g>
    <g>
        <path fill="none" stroke-linejoin="round" d="M25.2,31.9c0,0.3,-0.1,0.5,-0.3,0.5H19.9c-0.2,0,-0.3,-0.3,-0.3,-0.5v-3.3c0,-0.3,0.1,-0.5,0.3,-0.5h5c0.2,0,0.3,0.2,0.3,0.5V31.9z"/>
    </g>
</g>
<rect x="2.1" y="6.8" fill="none" width="22.3" height="16.7"/>
<circle fill="none" cx="21.5" cy="5.4" r="0.1"/>
<circle fill="none" cx="25.3" cy="0" r="0.1"/>
<circle fill="none" cx="29" cy="5.5" r="0.1"/>
<circle fill="none" cx="28.3" cy="30.3" r="0.1"/>
<circle fill="none" cx="22.4" cy="36" r="0.1"/>
<circle fill="none" cx="14.2" cy="36" r="0.1"/>
<circle fill="none" cx="6" cy="35.9" r="0.1"/>
<circle fill="none" cx="0" cy="33.7" r="0.1"/>
<circle fill="none" cx="0" cy="30.3" r="0.1"/>
<circle fill="none" cx="0" cy="26.9" r="0.1"/>
<circle fill="none" cx="5.9" cy="24.5" r="0.1"/>
<circle fill="none" cx="14.1" cy="24.5" r="0.1"/>
</g></g><rect stroke="none" stroke-width="1" fill="#FFFFFF" x="0" y="0" width="40" height="20" transform="translate(-14.5,-66.6)"/><path stroke="#000000" fill="none" d="M5.6,3.5 C26.8,-17.8 -15.7,-25.3 5.5 -46.6"/><text font-family="OpenSansCondensedLight" font-size="14pt" fill="black" transform="translate(-14.5,-66.6)" text-anchor="middle"><tspan x="20" y="16.3">232</tspan></text><rect stroke-width="0" fill="none" width="108.5" transform="translate(-39.8,42.6)"/><text font-family="OpenSansCondensedLight" font-size="14pt" fill="black" transform="translate(-39.8,42.6)" text-anchor="middle"><tspan x="54.3" y="16.8">ANTENNA</tspan></text><path stroke="#000000" fill="none" transform="translate(-39.8,42.6)" d="M 0 0"/></g><g><path stroke="black" stroke-dasharray="none" d="M 520 456 535 456" fill="none"/><path fill="black" stroke="black" d="" transform="translate(520,456) scale(1,1) rotate(0)"/><path fill="black" stroke="black" d="M 8 0 L 0 4 L 8 8 z" transform="translate(543,460) scale(1,1) rotate(-180)"/><g><g label-idx="0" cursor="move" transform="translate(527.5, 456)"><rect fill="white" rx="3" ry="3" x="0" y="0" width="0" height="0"/><text text-anchor="middle" font-size="14pt" font-family="OpenSansCondensedLight" y="0.8em" display="none" xml:space="preserve" transform="translate(0,0)"/></g></g></g><g transform="translate(69,750)"><g transform="rotate(90,14.5,18)"><g>
<g fill="#FFFFFF">
    <path d="M28,24.5h-2.5V6.7c0.3,-0.2,0.6,-0.7,0.6,-1.2c0,-0.7,-0.4,-1.3,-0.8,-1.3s-0.8,0.6,-0.8,1.3c0,0.6,0.3,1.1,0.6,1.2v17.8H0.3C0.2,24.5,0,24.8,0,25.1v10.3c0,0.3,0.1,0.6,0.3,0.6h27.7c0.1,0,0.3,-0.3,0.3,-0.6V25.1C28.3,24.8,28.2,24.5,28,24.5z"/>
    <path d="M23.5,10.6c-1.2,-1,-2,-2.8,-2,-5C21.5,2.5,23.2,0,25.2,0s3.8,2.5,3.8,5.6c0,2.2,-0.8,4.1,-2,5"/>
</g>
<g stroke="#000000" stroke-dasharray="none">
    <path fill="none" d="M25,7h0.5v17.6h-0.5V7z"/>
    <path fill="none" stroke-linejoin="round" d="M0.3,24.5h27.7c0.2,0,0.3,0.3,0.3,0.6v10.4c0,0.3,-0.2,0.6,-0.3,0.6H0.3c-0.2,0,-0.3,-0.3,-0.3,-0.6V25.1C0,24.8,0.2,24.5,0.3,24.5"/>
    <ellipse fill="none" stroke-linejoin="round" cx="25.2" cy="5.5" rx="0.8" ry="1.3"/>
    <path fill="none" stroke-linejoin="round" d="M24.1,8.5c-0.7,-0.6,-1.2,-1.7,-1.2,-2.9c0,-1.9,1,-3.4,2.3,-3.4s2.3,1.5,2.3,3.4c0,1.3,-0.5,2.4,-1.2,2.9"/>
    <path fill="none" stroke-linejoin="round" d="M23.5,10.6c-1.2,-1,-2,-2.8,-2,-5C21.5,2.5,23.2,0,25.2,0s3.8,2.5,3.8,5.6c0,2.2,-0.8,4.1,-2,5"/>
    <g>
        <path fill="none" stroke-linejoin="round" d="M8.8,31.9c0,0.3,-0.2,0.5,-0.3,0.5h-5.1c-0.2,0,-0.3,-0.3,-0.3,-0.5v-3.3c0,-0.3,0.1,-0.5,0.3,-0.5H8.5c0.2,0,0.3,0.2,0.3,0.5L8.8,31.9L8.8,31.9z"/>
    </g>
    <g>
        <path fill="none" stroke-linejoin="round" d="M17,31.9c0,0.3,-0.2,0.5,-0.3,0.5H11.6c-0.2,0,-0.3,-0.3,-0.3,-0.5v-3.3c0,-0.3,0.2,-0.5,0.3,-0.5h5c0.2,0,0.3,0.2,0.3,0.5L17,31.9L17,31.9z"/>
    </g>
    <g>
        <path fill="none" stroke-linejoin="round" d="M25.2,31.9c0,0.3,-0.1,0.5,-0.3,0.5H19.9c-0.2,0,-0.3,-0.3,-0.3,-0.5v-3.3c0,-0.3,0.1,-0.5,0.3,-0.5h5c0.2,0,0.3,0.2,0.3,0.5V31.9z"/>
    </g>
</g>
<rect x="2.1" y="6.8" fill="none" width="22.3" height="16.7"/>
<circle fill="none" cx="21.5" cy="5.4" r="0.1"/>
<circle fill="none" cx="25.3" cy="0" r="0.1"/>
<circle fill="none" cx="29" cy="5.5" r="0.1"/>
<circle fill="none" cx="28.3" cy="30.3" r="0.1"/>
<circle fill="none" cx="22.4" cy="36" r="0.1"/>
<circle fill="none" cx="14.2" cy="36" r="0.1"/>
<circle fill="none" cx="6" cy="35.9" r="0.1"/>
<circle fill="none" cx="0" cy="33.7" r="0.1"/>
<circle fill="none" cx="0" cy="30.3" r="0.1"/>
<circle fill="none" cx="0" cy="26.9" r="0.1"/>
<circle fill="none" cx="5.9" cy="24.5" r="0.1"/>
<circle fill="none" cx="14.1" cy="24.5" r="0.1"/>
</g></g><rect stroke="none" stroke-width="1" fill="#FFFFFF" x="0" y="0" width="40" height="20" transform="translate(64.3,48.7)"/><path stroke="#000000" fill="none" d="M32.5,28.8 C38.7,51.8 60.8,25.6 67 48.7"/><text font-family="OpenSansCondensedLight" font-size="14pt" fill="black" transform="translate(64.3,48.7)" text-anchor="middle"><tspan x="20" y="16.3">234</tspan></text><rect stroke-width="0" fill="none" width="108.5" transform="translate(-39.8,42.6)"/><text font-family="OpenSansCondensedLight" font-size="14pt" fill="black" transform="translate(-39.8,42.6)" text-anchor="middle"><tspan x="54.3" y="16.8">ANTENNA</tspan></text><path stroke="#000000" fill="none" transform="translate(-39.8,42.6)" d="M 0 0"/></g><g transform="translate(543,541)"><g><g>
<path d="M79,0H0v83h79V0L79,0z" stroke="#000000" stroke-dasharray="none" fill="#FFFFFF"/>
<rect x="3.5" y="3.8" width="72.1" height="75.4" fill="none"/>
<circle fill="none" cx="39.5" cy="0" r="0.1"/>
<circle fill="none" cx="59.1" cy="0" r="0.1"/>
<circle fill="none" cx="79" cy="20.9" r="0.1"/>
<circle fill="none" cx="79" cy="41.5" r="0.1"/>
<circle fill="none" cx="79" cy="62.1" r="0.1"/>
<circle fill="none" cx="59.1" cy="83" r="0.1"/>
<circle fill="none" cx="39.5" cy="83" r="0.1"/>
<circle fill="none" cx="19.9" cy="83" r="0.1"/>
<circle fill="none" cx="0" cy="62.1" r="0.1"/>
<circle fill="none" cx="0" cy="41.5" r="0.1"/>
<circle fill="none" cx="0" cy="20.9" r="0.1"/>
<circle fill="none" cx="19.9" cy="0" r="0.1"/>
</g></g><rect stroke="none" stroke-width="0" fill="#FFFFFF" x="0" y="0" width="0" height="0" transform="translate(78.9,41.4)"/><path stroke="#000000" fill="none" d=""/><text font-family="OpenSansCondensedLight" font-size="14pt" fill="black" transform="translate(78.9,41.4)"/><rect stroke-width="0" fill="none" width="72.1" height="75.4" transform="translate(3.5,3.8)"/><text font-family="OpenSansCondensedLight" font-size="14pt" fill="black" transform="translate(3.5,3.8)" text-anchor="middle"><tspan x="36" y="33.5">DISPLAY</tspan><tspan x="36" y="54.5">218</tspan></text><path stroke="#000000" fill="none" transform="translate(3.5,3.8)" d="M 22.1 57 50 57"/></g><g><path stroke="black" stroke-dasharray="none" d="M 520 582 535 582" fill="none"/><path fill="black" stroke="black" d="" transform="translate(520,582) scale(1,1) rotate(0)"/><path fill="black" stroke="black" d="M 8 0 L 0 4 L 8 8 z" transform="translate(543,586) scale(1,1) rotate(-180)"/><g><g label-idx="0" cursor="move" transform="translate(527.5, 582)"><rect fill="white" rx="3" ry="3" x="0" y="0" width="0" height="0"/><text text-anchor="middle" font-size="14pt" font-family="OpenSansCondensedLight" y="0.8em" display="none" xml:space="preserve" transform="translate(0,0)"/></g></g></g><g transform="translate(39,457)"><g><g>
<path d="M55,0H0v111h55V0L55,0z" stroke="#000000" stroke-dasharray="none" fill="#FFFFFF"/>
<rect x="2.4" y="5.1" width="50.2" height="100.9" fill="none"/>
<circle fill="none" cx="27.5" cy="0" r="0.1"/>
<circle fill="none" cx="41.1" cy="0" r="0.1"/>
<circle fill="none" cx="55" cy="28" r="0.1"/>
<circle fill="none" cx="55" cy="55.5" r="0.1"/>
<circle fill="none" cx="55" cy="83" r="0.1"/>
<circle fill="none" cx="41.1" cy="111" r="0.1"/>
<circle fill="none" cx="27.5" cy="111" r="0.1"/>
<circle fill="none" cx="13.9" cy="111" r="0.1"/>
<circle fill="none" cx="0" cy="83" r="0.1"/>
<circle fill="none" cx="0" cy="55.5" r="0.1"/>
<circle fill="none" cx="0" cy="28" r="0.1"/>
<circle fill="none" cx="13.9" cy="0" r="0.1"/>
</g></g><rect stroke="none" stroke-width="0" fill="#FFFFFF" x="0" y="0" width="0" height="0" transform="translate(54.9,55.4)"/><path stroke="#000000" fill="none" d=""/><text font-family="OpenSansCondensedLight" font-size="14pt" fill="black" transform="translate(54.9,55.4)"/><rect stroke-width="0" fill="none" width="50.2" height="100.9" transform="translate(2.4,5.1)"/><text font-family="OpenSansCondensedLight" font-size="14pt" fill="black" transform="translate(2.4,5.1)" text-anchor="middle"><tspan x="25.1" y="16.8">DOCK</tspan><tspan x="25.1" y="37.8">I/F</tspan><tspan x="25.1" y="58.8">222</tspan></text><path stroke="#000000" fill="none" transform="translate(2.4,5.1)" d="M 11.1 61 39.1 61"/></g><g><path stroke="black" stroke-dasharray="none" d="M 102 510 115 510" fill="none"/><path fill="black" stroke="black" d="M 8 0 L 0 4 L 8 8 z" transform="translate(94,506) scale(1,1) rotate(0)"/><path fill="black" stroke="black" d="M 8 0 L 0 4 L 8 8 z" transform="translate(123,514) scale(1,1) rotate(-180)"/><g><g label-idx="0" cursor="move" transform="translate(108.5, 510)"><rect fill="white" rx="3" ry="3" x="0" y="0" width="0" height="0"/><text text-anchor="middle" font-size="14pt" font-family="OpenSansCondensedLight" y="0.8em" display="none" xml:space="preserve" transform="translate(0,0)"/></g></g></g><g transform="translate(142,660)"><g><g>
<path d="M172,0H0v139h172V0L172,0z" stroke="#000000" stroke-dasharray="none" fill="#FFFFFF"/>
<rect x="7.5" y="6.3" width="157" height="126.3" fill="none"/>
<circle fill="none" cx="86" cy="0" r="0.1"/>
<circle fill="none" cx="128.6" cy="0" r="0.1"/>
<circle fill="none" cx="172" cy="35.1" r="0.1"/>
<circle fill="none" cx="172" cy="69.5" r="0.1"/>
<circle fill="none" cx="172" cy="103.9" r="0.1"/>
<circle fill="none" cx="128.6" cy="139" r="0.1"/>
<circle fill="none" cx="86" cy="139" r="0.1"/>
<circle fill="none" cx="43.4" cy="139" r="0.1"/>
<circle fill="none" cx="0" cy="103.9" r="0.1"/>
<circle fill="none" cx="0" cy="69.5" r="0.1"/>
<circle fill="none" cx="0" cy="35.1" r="0.1"/>
<circle fill="none" cx="43.4" cy="0" r="0.1"/>
</g></g><rect stroke="none" stroke-width="0" fill="#FFFFFF" x="0" y="0" width="0" height="0" transform="translate(171.9,69.4)"/><path stroke="#000000" fill="none" d=""/><text font-family="OpenSansCondensedLight" font-size="14pt" fill="black" transform="translate(171.9,69.4)"/><rect stroke-width="0" fill="none" width="157" height="126.3" transform="translate(7.5,6.3)"/><text font-family="OpenSansCondensedLight" font-size="14pt" fill="black" transform="translate(7.5,6.3)" text-anchor="middle"><tspan x="78.5" y="16.8">SHORT TO</tspan><tspan x="78.5" y="37.8">MEDIUM RANGE</tspan><tspan x="78.5" y="58.8">WIRELESS</tspan><tspan x="78.5" y="79.8">COMMUNICATION</tspan><tspan x="78.5" y="100.8">CIRCUITRY   224</tspan></text><path stroke="#000000" fill="none" transform="translate(7.5,6.3)" d="M 116.6 103 144.6 103"/></g><g><path stroke="black" stroke-dasharray="none" d="M 223 652 223 630" fill="none"/><path fill="black" stroke="black" d="M 8 0 L 0 4 L 8 8 z" transform="translate(219,660) scale(1,1) rotate(-90)"/><path fill="black" stroke="black" d="M 8 0 L 0 4 L 8 8 z" transform="translate(227,622) scale(1,1) rotate(-270)"/><g><g label-idx="0" cursor="move" transform="translate(223, 641)"><rect fill="white" rx="3" ry="3" x="0" y="0" width="0" height="0"/><text text-anchor="middle" font-size="14pt" font-family="OpenSansCondensedLight" y="0.8em" display="none" xml:space="preserve" transform="translate(0,0)"/></g></g></g><g transform="translate(329,660)"><g><g>
<path d="M174,0H0v140h174V0L174,0z" stroke="#000000" stroke-dasharray="none" fill="#FFFFFF"/>
<rect x="7.6" y="6.4" width="158.8" height="127.2" fill="none"/>
<circle fill="none" cx="87" cy="0" r="0.1"/>
<circle fill="none" cx="130.1" cy="0" r="0.1"/>
<circle fill="none" cx="174" cy="35.3" r="0.1"/>
<circle fill="none" cx="174" cy="70" r="0.1"/>
<circle fill="none" cx="174" cy="104.7" r="0.1"/>
<circle fill="none" cx="130.1" cy="140" r="0.1"/>
<circle fill="none" cx="87" cy="140" r="0.1"/>
<circle fill="none" cx="43.9" cy="140" r="0.1"/>
<circle fill="none" cx="0" cy="104.7" r="0.1"/>
<circle fill="none" cx="0" cy="70" r="0.1"/>
<circle fill="none" cx="0" cy="35.3" r="0.1"/>
<circle fill="none" cx="43.9" cy="0" r="0.1"/>
</g></g><rect stroke="none" stroke-width="0" fill="#FFFFFF" x="0" y="0" width="0" height="0" transform="translate(173.9,69.9)"/><path stroke="#000000" fill="none" d=""/><text font-family="OpenSansCondensedLight" font-size="14pt" fill="black" transform="translate(173.9,69.9)"/><rect stroke-width="0" fill="none" width="158.8" height="127.2" transform="translate(7.6,6.4)"/><text font-family="OpenSansCondensedLight" font-size="14pt" fill="black" transform="translate(7.6,6.4)" text-anchor="middle"><tspan x="79.4" y="16.8">CELLULAR</tspan><tspan x="79.4" y="37.8">COMMUNICATION</tspan><tspan x="79.4" y="58.8">CIRCUITRY 226</tspan></text><path stroke="#000000" fill="none" transform="translate(7.6,6.4)" d="M 117.5 61 145.5 61"/></g><g><path stroke="black" stroke-dasharray="none" d="M 420 652 420 630" fill="none"/><path fill="black" stroke="black" d="M 8 0 L 0 4 L 8 8 z" transform="translate(416,660) scale(1,1) rotate(-90)"/><path fill="black" stroke="black" d="M 8 0 L 0 4 L 8 8 z" transform="translate(424,622) scale(1,1) rotate(-270)"/><g><g label-idx="0" cursor="move" transform="translate(420, 641)"><rect fill="white" rx="3" ry="3" x="0" y="0" width="0" height="0"/><text text-anchor="middle" font-size="14pt" font-family="OpenSansCondensedLight" y="0.8em" display="none" xml:space="preserve" transform="translate(0,0)"/></g></g></g><g><path stroke="black" stroke-dasharray="none" d="M 502 683 543 683" fill="none"/><path fill="black" stroke="black" d="" transform="translate(502,683) scale(1,1) rotate(0)"/><path fill="black" stroke="black" d="" transform="translate(543,683) scale(1,1) rotate(-180)"/><g><g label-idx="0" cursor="move" transform="translate(522.5, 683)"><rect fill="white" rx="3" ry="3" x="0" y="0" width="0" height="0"/><text text-anchor="middle" font-size="14pt" font-family="OpenSansCondensedLight" y="0.8em" display="none" xml:space="preserve" transform="translate(0,0)"/></g></g></g><g><path stroke="black" stroke-dasharray="none" d="M 548 753 505 753" fill="none"/><path fill="black" stroke="black" d="" transform="translate(548,753) scale(1,1) rotate(-180)"/><path fill="black" stroke="black" d="" transform="translate(505,753) scale(1,1) rotate(0)"/><g><g label-idx="0" cursor="move" transform="translate(526.5, 753)"><rect fill="white" rx="3" ry="3" x="0" y="0" width="0" height="0"/><text text-anchor="middle" font-size="14pt" font-family="OpenSansCondensedLight" y="0.8em" display="none" xml:space="preserve" transform="translate(0,0)"/></g></g></g><g><path stroke="black" stroke-dasharray="none" d="M 99 695 142 695" fill="none"/><path fill="black" stroke="black" d="" transform="translate(99,695) scale(1,1) rotate(0)"/><path fill="black" stroke="black" d="" transform="translate(142,695) scale(1,1) rotate(-180)"/><g><g label-idx="0" cursor="move" transform="translate(120.5, 695)"><rect fill="white" rx="3" ry="3" x="0" y="0" width="0" height="0"/><text text-anchor="middle" font-size="14pt" font-family="OpenSansCondensedLight" y="0.8em" display="none" xml:space="preserve" transform="translate(0,0)"/></g></g></g><g><path stroke="black" stroke-dasharray="none" d="M 101 780 143 780" fill="none"/><path fill="black" stroke="black" d="" transform="translate(101,780) scale(1,1) rotate(0)"/><path fill="black" stroke="black" d="" transform="translate(143,780) scale(1,1) rotate(-180)"/><g><g label-idx="0" cursor="move" transform="translate(122, 780)"><rect fill="white" rx="3" ry="3" x="0" y="0" width="0" height="0"/><text text-anchor="middle" font-size="14pt" font-family="OpenSansCondensedLight" y="0.8em" display="none" xml:space="preserve" transform="translate(0,0)"/></g></g></g></g><defs/></svg>